Coordinates
version=1
nRows=29
nColumns=24
inDegrees=yes

Units are S.I. units (second, meters, Newtons, ...)
Angles are in degrees.

endheader
time	pelvis_tilt	pelvis_list	pelvis_rotation	pelvis_tx	pelvis_ty	pelvis_tz	hip_flexion_r	hip_adduction_r	hip_rotation_r	knee_angle_r	ankle_angle_r	subtalar_angle_r	mtp_angle_r	hip_flexion_l	hip_adduction_l	hip_rotation_l	knee_angle_l	ankle_angle_l	subtalar_angle_l	mtp_angle_l	lumbar_extension	lumbar_bending	lumbar_rotation
      7.61000000	    -10.79124367	      4.98801836	      0.98711725	     -0.75497272	     -0.00629586	     -0.30284358	     25.02034413	    -11.87766311	    -10.64599531	    -62.55878440	    -17.01041841	     -1.12240910	     32.56144318	     15.82325822	     10.21028247	     10.27797184	    -13.76504222	      0.42027860	     -7.03054327	      4.40323502	     11.05576672	     -8.37344880	      3.80548535
      7.61500000	    -10.68433785	      4.77537542	      1.21294373	     -0.75021932	     -0.00573564	     -0.30337649	     25.53806396	    -11.67973254	    -10.83279382	    -62.29020971	    -16.37407845	     -0.88999510	     32.94144349	     15.23347375	     10.05371560	     10.61954089	    -13.52506109	      0.59352669	     -7.00275905	      4.38675848	     10.87237309	     -8.24004996	      3.39782503
      7.62000000	    -10.51262151	      4.61641270	      1.43082202	     -0.74548220	     -0.00515860	     -0.30392836	     25.97835522	    -11.53987997	    -11.00379916	    -61.96263414	    -15.75680261	     -0.62929176	     33.42884199	     14.55828936	      9.94861315	     10.94799320	    -13.24872684	      0.73180465	     -7.03898840	      4.29643208	     10.61514866	     -8.16101782	      2.97774393
      7.62500000	    -10.45054304	      4.39758477	      1.55027688	     -0.74077971	     -0.00469718	     -0.30429165	     26.56079928	    -11.24851906	    -11.06439445	    -61.57327280	    -15.23453465	     -0.48561792	     33.67939029	     14.01466474	      9.73491746	     11.17967267	    -12.97338848	      0.90589665	     -6.99588180	      4.31927688	     10.49966010	     -7.99066371	      2.72161495
      7.63000000	    -10.28147097	      4.22969969	      1.77203274	     -0.73603289	     -0.00418994	     -0.30483466	     26.96927565	    -11.08613792	    -11.23087275	    -61.12413181	    -14.59940354	     -0.10343036	     34.07157260	     13.34318642	      9.60055272	     11.41527796	    -12.68175163	      1.07624018	     -6.93386597	      4.34979713	     10.25596461	     -7.89680844	      2.28202653
      7.63500000	    -10.13411984	      4.05862399	      1.92303311	     -0.73134345	     -0.00374506	     -0.30524471	     27.41589098	    -10.85856166	    -11.30840149	    -60.61948043	    -14.01700114	      0.18457402	     34.37329966	     12.69679311	      9.43431986	     11.63811822	    -12.37922039	      1.24308148	     -6.89301897	      4.39796492	     10.04074369	     -7.78207567	      1.96632371
      7.64000000	     -9.99849370	      3.89302521	      2.06842642	     -0.72666057	     -0.00334986	     -0.30563163	     27.86176030	    -10.62352290	    -11.37009273	    -60.05828313	    -13.44314980	      0.47956186	     34.61362395	     12.06495157	      9.26573802	     11.83475874	    -12.07288396	      1.40818126	     -6.83665881	      4.46873649	      9.84355173	     -7.67006878	      1.66471484
      7.64500000	     -9.83596341	      3.74870142	      2.21631522	     -0.72201914	     -0.00299111	     -0.30600789	     28.26653520	    -10.40369178	    -11.41755976	    -59.45043724	    -12.84190120	      0.79852098	     34.81153598	     11.40764862	      9.11463219	     12.04264181	    -11.76961187	      1.57702530	     -6.77926617	      4.56415546	      9.60559193	     -7.57902535	      1.36675499
      7.65000000	     -9.69528625	      3.59546047	      2.36483894	     -0.71734580	     -0.00266143	     -0.30636174	     28.66849102	    -10.16448871	    -11.46067643	    -58.77239036	    -12.26605461	      1.12781561	     34.94646807	     10.77477064	      8.94914458	     12.21007069	    -11.46124406	      1.72396811	     -6.72582192	      4.64948646	      9.40477601	     -7.47972500	      1.06562618
      7.65500000	     -9.53081032	      3.46131179	      2.51726754	     -0.71272032	     -0.00237525	     -0.30669591	     29.03103058	     -9.93746735	    -11.48800537	    -58.04923060	    -11.66604724	      1.46969976	     35.02525188	     10.12453573	      8.80093367	     12.39799666	    -11.16648397	      1.88115591	     -6.68537871	      4.74325045	      9.16548440	     -7.39976101	      0.76035827
      7.66000000	     -9.37309919	      3.33074227	      2.67551996	     -0.70810194	     -0.00212875	     -0.30701384	     29.37918893	     -9.70890672	    -11.50866276	    -57.26824104	    -11.07963375	      1.81521989	     35.04264832	      9.48714013	      8.65420462	     12.59095594	    -10.88007936	      2.03153689	     -6.65853033	      4.82323845	      8.93348278	     -7.32312189	      0.45927588
      7.66500000	     -9.20791955	      3.21192556	      2.84149960	     -0.70351244	     -0.00192636	     -0.30732202	     29.70098951	     -9.48954094	    -11.51982998	    -56.43965748	    -10.48975520	      2.17050602	     34.99414929	      8.84882810	      8.51895230	     12.80661152	    -10.60653702	      2.18526911	     -6.65150978	      4.88759052	      8.68403014	     -7.25781504	      0.14709741
      7.67000000	     -9.05532044	      3.09630471	      3.02415149	     -0.69891412	     -0.00176262	     -0.30760691	     30.00596248	     -9.27191686	    -11.52778366	    -55.54798955	     -9.91508841	      2.53067727	     34.90258621	      8.23472964	      8.38775736	     13.02802760	    -10.35506487	      2.33633270	     -6.66223000	      4.92317848	      8.45054988	     -7.20420120	     -0.17106414
      7.67500000	     -8.92701184	      2.97932156	      3.20782124	     -0.69431526	     -0.00165129	     -0.30788333	     30.31739275	     -9.05798992	    -11.54466993	    -54.60276675	     -9.37684639	      2.89007546	     34.78720125	      7.64683683	      8.25188640	     13.25304643	    -10.09996918	      2.48052176	     -6.68076394	      4.92707271	      8.24152173	     -7.14597517	     -0.47765671
      7.68000000	     -8.76503736	      2.88094946	      3.41928113	     -0.68972268	     -0.00155392	     -0.30819402	     30.55806048	     -8.86915142	    -11.55063243	    -53.60214476	     -8.80835777	      3.28691015	     34.60140855	      7.03580626	      8.14157413	     13.52844090	     -9.88141647	      2.64299642	     -6.73438829	      4.89842158	      7.99638417	     -7.10405614	     -0.82996077
      7.68500000	     -8.61467248	      2.78637988	      3.63444326	     -0.68521225	     -0.00149156	     -0.30844096	     30.79676158	     -8.67250888	    -11.52618157	    -52.55492174	     -8.25711684	      3.69017086	     34.32494871	      6.45468086	      8.03051119	     13.84101256	     -9.68934123	      2.79158728	     -6.80870523	      4.81282900	      7.73717726	     -7.07439570	     -1.18476877
      7.69000000	     -8.51159749	      2.68303456	      3.85901912	     -0.68060243	     -0.00149065	     -0.30872567	     31.04486609	     -8.48622629	    -11.53394205	    -51.43413476	     -7.73749421	      4.08417550	     34.08265280	      5.92097362	      7.91258519	     14.12555862	     -9.49657199	      2.94829391	     -6.86912929	      4.71780569	      7.55771885	     -7.02836735	     -1.50618409
      7.69500000	     -8.40064974	      2.58495462	      4.09232858	     -0.67605381	     -0.00150757	     -0.30897331	     31.26028306	     -8.29995048	    -11.51576010	    -50.25873862	     -7.22788630	      4.48773847	     33.79356901	      5.39557724	      7.79671736	     14.44165426	     -9.33222526	      3.10531925	     -6.94178660	      4.59449709	      7.35096536	     -6.99285180	     -1.84856153
      7.70000000	     -8.30468755	      2.48842463	      4.32650691	     -0.67151309	     -0.00156118	     -0.30920728	     31.46515536	     -8.11511758	    -11.48063487	    -49.02768485	     -6.74387730	      4.88853333	     33.45868615	      4.89562856	      7.68092187	     14.76619656	     -9.18466697	      3.26436478	     -7.01820330	      4.45259967	      7.15724400	     -6.95746638	     -2.18833021
      7.70500000	     -8.16753793	      2.40715388	      4.58588840	     -0.66708888	     -0.00159652	     -0.30943347	     31.60361740	     -7.95067890	    -11.42546589	    -47.76087494	     -6.23316265	      5.33316622	     32.92262737	      4.37255550	      7.58035017	     15.15545684	     -9.07526656	      3.42611003	     -7.12268012	      4.22682044	      6.88420565	     -6.94632332	     -2.58709030
      7.71000000	     -8.09308242	      2.31017483	      4.82821433	     -0.66257313	     -0.00170229	     -0.30965491	     31.77327085	     -7.77158668	    -11.36728105	    -46.42657169	     -5.75349614	      5.74469066	     32.33578865	      3.91699872	      7.46235442	     15.50142962	     -8.96816644	      3.60108854	     -7.20011471	      4.00320197	      6.70357279	     -6.90891123	     -2.92528979
      7.71500000	     -8.03951991	      2.21108264	      5.06481510	     -0.65807423	     -0.00184657	     -0.30986481	     31.93669412	     -7.58911967	    -11.28379096	    -45.03011373	     -5.33165512	      6.11178695	     31.76056435	      3.49964875	      7.34100226	     15.81920402	     -8.88319201	      3.77561195	     -7.25206709	      3.83062329	      6.54596169	     -6.86353117	     -3.25004786
      7.72000000	     -7.99227911	      2.10726066	      5.30034483	     -0.65358873	     -0.00200713	     -0.31007888	     32.07588128	     -7.40445090	    -11.18263795	    -43.57821697	     -4.94444992	      6.44898029	     31.11847002	      3.09909885	      7.21324866	     16.13036726	     -8.81147743	      3.94155129	     -7.29740677	      3.68703581	      6.39262766	     -6.80642276	     -3.57266908
      7.72500000	     -7.96513955	      1.99495958	      5.52811408	     -0.64911506	     -0.00219658	     -0.31025702	     32.20455649	     -7.21050193	    -11.06716151	    -42.06637008	     -4.59191730	      6.74540919	     30.42211897	      2.73319052	      7.07343599	     16.42007341	     -8.75565664	      4.10209853	     -7.32875412	      3.58575923	      6.25442927	     -6.74755286	     -3.88122543
      7.73000000	     -8.05883002	      1.90332560	      5.67745642	     -0.64468138	     -0.00255738	     -0.31037578	     32.46710192	     -7.00404233	    -10.79764151	    -40.50251710	     -4.42760803	      6.96903171	     30.15498132	      2.52035126	      6.96628689	     16.59014426	     -8.73028531	      4.24229278	     -7.34795111	      3.60035687	      6.25743038	     -6.69396465	     -4.07106688
      7.73500000	     -7.93729848	      1.76097014	      5.96932045	     -0.64022613	     -0.00264011	     -0.31061518	     32.40012903	     -6.82089597	    -10.77103186	    -38.87222441	     -4.09027655	      7.12834417	     29.16061353	      2.06835528	      6.78138115	     16.92233315	     -8.69146921	      4.39592868	     -7.32957396	      3.57358139	      5.99870399	     -6.59728794	     -4.48901003
      7.74000000	     -7.94170927	      1.66859419	      6.11212955	     -0.63571509	     -0.00294093	     -0.31071412	     32.50337142	     -6.62221987	    -10.52467744	    -37.31472224	     -3.49550418	      7.55545276	     27.57827784	      1.74453901	      6.65381261	     17.09259270	     -8.64454426	      4.54248550	     -7.33003429	      3.55374931	      5.90851673	     -6.52804638	     -4.65886916
      7.74500000	     -8.06989923	      1.54435770	      6.29376837	     -0.63131752	     -0.00335991	     -0.31090329	     32.69393777	     -6.43150112	    -10.27704161	    -35.59320949	     -3.43742923	      7.61850134	     27.28634177	      1.60756553	      6.52126329	     17.27693386	     -8.67868651	      4.68746698	     -7.32388754	      3.61314381	      5.93470553	     -6.43372083	     -4.89402049
      7.75000000	     -8.01506807	      1.40105025	      6.53304803	     -0.62688830	     -0.00355129	     -0.31105277	     32.62205061	     -6.22668688	    -10.12137533	    -33.82211916	     -3.28433857	      7.51428547	     26.44406462	      1.26343505	      6.33037363	     17.45364206	     -8.68057135	      4.83454299	     -7.21167921	      3.73538612	      5.74773752	     -6.32550721	     -5.24532569
